# xmcd CD Database Entry
#
# Track frame offsets:
# 150
# 27367
# 46663
# 65594
# 87958
# 113104
# 130883
# 154303
# 171602
# 195903
# 215083
#
# Disc length: 3213 seconds
#
# Revision: 1
# Processed by: cddbd v1.4b42PL1 Copyright (c) Steve Scherf et al.
# Submitted via: tcd 2.0b
#
DISCID=9a0c8b0b
DTITLE=모름 - 모름
DYEAR=1900
DGENRE=
TTITLE0=forbidden lover
TTITLE1=Heaven's Driver
TTITLE2=Driver's High
TTITLE3=Cradle
TTITLE4=Dive to Blue
TTITLE5=Larva
TTITLE6=Butterfly's Sleep
TTITLE7=Perfact Blue
TTITLE8=
TTITLE9=What is love
TTITLE10=Pieces
EXTD=
EXTT0=
EXTT1=
EXTT2=
EXTT3=
EXTT4=
EXTT5=
EXTT6=
EXTT7=
EXTT8=
EXTT9=
EXTT10=
PLAYORDER=
